<svg id="Layer_1" data-name="Layer 1" xmlns="http://www.w3.org/2000/svg" viewBox="0 0 251.94 111.47"><defs><style>.cls-1{fill:#fff;}</style></defs><title>Slater-Holdings-Logo-KO</title><path class="cls-1" d="M256.64,115.61H4.7V43H256.64Zm-248.94-3H253.64V46H7.7Z" transform="translate(-4.7 -4.14)"/><polygon class="cls-1" points="156.13 22.72 160.38 22.72 158.26 17.15 156.13 22.72"/><path class="cls-1" d="M116.84,19.2h-2.06v4.69h2.06c1.83,0,2.66-.83,2.66-2.33S118.67,19.2,116.84,19.2Z" transform="translate(-4.7 -4.14)"/><polygon class="cls-1" points="52.62 22.72 56.87 22.72 54.75 17.15 52.62 22.72"/><path class="cls-1" d="M4.7,4.14V45.58H256.64V4.14Zm16.06,30a10.24,10.24,0,0,1-6.63-2.3l1.06-3.48a8.82,8.82,0,0,0,5.57,2.36c1.45,0,2.57-.56,2.57-1.8s-.77-1.62-3.3-2.21c-4-.94-5.43-3.1-5.43-5.72,0-3.22,2.54-5.31,6.49-5.31a10.41,10.41,0,0,1,5.81,1.8l-1,3.18A10,10,0,0,0,21,19.08c-1.27,0-2.07.53-2.07,1.42s.54,1.32,2.54,1.79c4.43,1,6.22,2.9,6.22,6.08C27.72,32.53,24.36,34.09,20.76,34.09Zm25.15-.35H33.61V16h4.78v14.1h7.52Zm18.31,0L62.72,30H56.17l-1.48,3.78H50.06L57.5,16h4L69,33.74Zm22.13-14.1h-5.7v14.1H75.87V19.64H70.18V16H86.35Zm17.26,0H96.09v3h6v3.57h-6v3.95h7.52v3.6H91.31V16h12.3Zm17.16,14.1-4.72-6.81h-1.27v6.81H110V16h8c4.31,0,6.17,2.6,6.17,5.46a5,5,0,0,1-3.45,4.95l5.16,7.29Zm29.75-14.1h-7.14v3.19h5.67V26.4h-5.67v7.34h-4.77V16h11.91Zm17.21,14.1L166.23,30h-6.55l-1.48,3.78h-4.63L161,16h4l7.43,17.7Zm29,0h-4.21V24.09c0-.41.09-1.77.12-1.88L192,24.09l-4,9.65h-2.83l-4-9.65c-.18-.41-.59-1.68-.65-1.88,0,.11.12,1.47.12,1.88v9.65h-4.1V16h5.34l4.81,11.24L191.51,16h5.22Zm11.68,0h-4.78V16h4.78Zm19.13,0h-12.3V16H220v14.1h7.53Zm12.29-7.08v7.08h-4.78V26.66L228.12,16h5.25l4.13,6.7,4.13-6.7h5.13Z" transform="translate(-4.7 -4.14)"/><path class="cls-1" d="M20.29,54.8V77.07h14.1V54.8h5.16v50.12H34.39V81.79H20.29v23.13H15.13V54.8Z" transform="translate(-4.7 -4.14)"/><path class="cls-1" d="M60.59,54.23h.57c7.59,0,11.75,3.43,11.75,10.59V94.89c0,7.16-4.16,10.6-11.75,10.6h-.57c-7.59,0-11.74-3.44-11.74-10.6V64.82C48.85,57.59,53,54.23,60.59,54.23Zm.29,46.6c4.8,0,6.87-2,6.87-7.23V66.11c0-5.22-2.07-7.23-6.87-7.23S54,60.89,54,66.11V93.6C54,98.83,56.08,100.83,60.88,100.83Z" transform="translate(-4.7 -4.14)"/><path class="cls-1" d="M101.61,104.92H82.21V54.8h5.16v45.39h14.24Z" transform="translate(-4.7 -4.14)"/><path class="cls-1" d="M131.75,65.4V94.32c0,7.16-4.15,10.6-11.74,10.6h-12V54.8h12C127.6,54.8,131.75,58.24,131.75,65.4Zm-12-6h-6.51v40.81h6.51c4.8,0,6.88-2,6.88-7.23V66.68C126.6,61.46,124.52,59.45,119.72,59.45Z" transform="translate(-4.7 -4.14)"/><path class="cls-1" d="M141.34,104.92V54.8h5.16v50.12Z" transform="translate(-4.7 -4.14)"/><path class="cls-1" d="M156.3,104.92V54.8h5.23l14.68,38v-38H181v50.12h-4.93l-15-38.74v38.74Z" transform="translate(-4.7 -4.14)"/><path class="cls-1" d="M214.36,94.89c0,7.3-4.15,10.6-11.74,10.6h-.57c-7.59,0-11.74-3.22-11.74-10.6V64.82c0-7,4.15-10.59,11.74-10.59h.57c7.59,0,11.74,3.58,11.74,10.59v6.73h-5.15V66.11c0-5.22-2.08-7.23-6.87-7.23s-6.88,2-6.88,7.23V93.6c0,5.23,2.08,7.23,6.88,7.23s6.87-2,6.87-7.23V84.37h-7.16V79.79h12.31Z" transform="translate(-4.7 -4.14)"/><path class="cls-1" d="M240.49,72.27V65.68c0-4.79-1.93-6.87-6.44-6.87s-6.44,2.08-6.44,6.87v3.51c0,3.37,1.14,4.37,4.51,6.23l7.16,3.94c3.86,2.14,6.44,4.79,6.44,9V95c0,7.3-3.94,10.45-11.53,10.45h-.14c-7.59,0-11.53-3.08-11.53-10.45V86.73h5.09v7.16c0,4.73,1.93,7,6.51,7s6.52-2.29,6.52-7v-4c0-3.36-1.29-4.65-4.73-6.59l-7-3.86c-4.37-2.44-6.38-4.51-6.38-8.88v-6c0-7,4.59-10.31,11.46-10.31h.14c6.88,0,11.46,3.29,11.46,10.31v7.73Z" transform="translate(-4.7 -4.14)"/></svg>